<svg width="40" height="40" viewBox="0 0 40 40" fill="none" xmlns="http://www.w3.org/2000/svg">
<g clip-path="url(#clip0_242_108)">
<path d="M24.3217 4.52922C16.5544 2.22 16.034 5.74604 16.034 5.74604L15.0009 9.25232L22.4131 11.456L22.1003 12.5079L11.7442 9.42898C11.7442 9.42898 6.94221 7.38536 4.60287 15.2539C2.26346 23.1227 6.68459 24.1334 6.68459 24.1334L9.27359 24.9031L10.3592 21.2517C10.3592 21.2517 11.5145 16.8546 15.923 18.1653L23.2745 20.3509C23.2745 20.3509 27.3849 21.6458 28.5964 17.571L30.5994 10.8335C30.5994 10.8335 32.439 6.94251 24.3217 4.52922ZM19.5341 5.6703C19.7093 5.72222 19.8725 5.80831 20.0144 5.92365C20.1563 6.039 20.274 6.18133 20.3609 6.3425C20.4478 6.50367 20.5021 6.68052 20.5207 6.86293C20.5394 7.04533 20.522 7.22972 20.4695 7.40553C20.4174 7.58143 20.3312 7.74537 20.216 7.88797C20.1007 8.03056 19.9586 8.14901 19.7978 8.23654C19.637 8.32407 19.4606 8.37896 19.2787 8.39806C19.0969 8.41717 18.9132 8.40012 18.7381 8.34789C18.5629 8.29597 18.3997 8.20988 18.2578 8.09454C18.1159 7.97919 17.9982 7.83686 17.9113 7.67569C17.8244 7.51452 17.7701 7.33767 17.7515 7.15526C17.7328 6.97286 17.7502 6.78847 17.8027 6.61266C17.8548 6.43676 17.9409 6.27282 18.0562 6.13022C18.1715 5.98763 18.3136 5.86918 18.4744 5.78165C18.6352 5.69412 18.8116 5.63923 18.9934 5.62013C19.1753 5.60102 19.359 5.61807 19.5341 5.6703Z" fill="url(#paint0_linear_242_108)"/>
<path d="M15.4568 35.1541C23.224 37.4633 23.7445 33.9373 23.7445 33.9373L24.7775 30.4311L17.3652 28.2275L17.678 27.1755L28.0341 30.2544C28.0341 30.2544 32.8361 32.2981 35.1755 24.4293C37.5149 16.5606 33.0938 15.5499 33.0938 15.5499L30.5048 14.7802L29.4192 18.4315C29.4192 18.4315 28.2639 22.8286 23.8554 21.5179L16.5039 19.3323C16.5039 19.3323 12.3935 18.0373 11.182 22.1123L9.17888 28.8499C9.17888 28.8499 7.33949 32.7408 15.4567 35.1541L15.4568 35.1541ZM20.2443 34.0133C20.0691 33.9614 19.9059 33.8753 19.764 33.7599C19.6221 33.6446 19.5044 33.5022 19.4175 33.3411C19.3306 33.1799 19.2763 33.0031 19.2577 32.8206C19.239 32.6382 19.2564 32.4539 19.3089 32.278C19.361 32.1021 19.4471 31.9382 19.5624 31.7956C19.6777 31.6529 19.8198 31.5345 19.9806 31.4469C20.1414 31.3594 20.3178 31.3045 20.4997 31.2854C20.6815 31.2663 20.8652 31.2833 21.0404 31.3356C21.2156 31.3875 21.3788 31.4736 21.5206 31.5889C21.6625 31.7043 21.7802 31.8466 21.8671 32.0078C21.954 32.1689 22.0083 32.3458 22.027 32.5282C22.0456 32.7106 22.0282 32.895 21.9758 33.0708C21.9236 33.2467 21.8375 33.4106 21.7222 33.5532C21.607 33.6958 21.4648 33.8143 21.304 33.9018C21.1432 33.9893 20.9668 34.0442 20.785 34.0633C20.6031 34.0824 20.4194 34.0655 20.2443 34.0133Z" fill="url(#paint1_linear_242_108)"/>
</g>
<defs>
<linearGradient id="paint0_linear_242_108" x1="221.445" y1="362.292" x2="1297.45" y2="2315.92" gradientUnits="userSpaceOnUse">
<stop stop-color="#387EB8"/>
<stop offset="1" stop-color="#366994"/>
</linearGradient>
<linearGradient id="paint1_linear_242_108" x1="309.056" y1="608.961" x2="1485.98" y2="2633.79" gradientUnits="userSpaceOnUse">
<stop stop-color="#FFE052"/>
<stop offset="1" stop-color="#FFC331"/>
</linearGradient>
<clipPath id="clip0_242_108">
<rect width="32" height="32" fill="white" transform="translate(9.11914) rotate(16.5573)"/>
</clipPath>
</defs>
</svg>
